<svg width="1702" height="327" viewBox="0 0 1702 327" fill="none" xmlns="http://www.w3.org/2000/svg">
<path d="M441.875 241.375C432.575 241.375 424.25 239.35 416.9 235.3C413.3 233.35 410.375 231.25 408.125 229C405.725 232.3 403.1 234.85 400.25 236.65C398.9 237.55 397.4 238.375 395.75 239.125H390.125V200.875H399.125C401.075 207.175 403.925 213.025 407.675 218.425C415.625 229.975 425.525 235.75 437.375 235.75C443.675 235.75 448.4 234.25 451.55 231.25C454.85 228.1 456.5 223.6 456.5 217.75C456.5 212.8 454.25 208.675 449.75 205.375C445.4 201.925 438.5 197.725 429.05 192.775C420.95 188.725 414.35 185.125 409.25 181.975C404.3 178.675 400.025 174.625 396.425 169.825C392.975 164.875 391.25 159.1 391.25 152.5C391.25 143.5 395.075 136.225 402.725 130.675C410.525 124.975 422.45 122.125 438.5 122.125C446.45 122.125 453.8 124.225 460.55 128.425C463.85 130.375 466.7 132.4 469.1 134.5C471.05 131.8 473.675 129.25 476.975 126.85C479.525 125.35 481.025 124.525 481.475 124.375H487.1V162.625H478.1C475.85 156.175 473.075 150.4 469.775 145.3C462.275 133.6 453.35 127.75 443 127.75C438.95 127.75 435.5 129.25 432.65 132.25C429.8 135.25 428.375 139 428.375 143.5C428.375 149.2 430.775 154 435.575 157.9C440.375 161.65 447.65 166 457.4 170.95C465.35 175 471.65 178.6 476.3 181.75C481.1 184.75 485.15 188.5 488.45 193C491.9 197.5 493.625 202.75 493.625 208.75C493.625 230.5 476.375 241.375 441.875 241.375ZM554.384 241.375C541.034 241.375 530.759 238.525 523.559 232.825C516.359 227.125 512.759 219.85 512.759 211C512.759 205.15 514.034 199.375 516.584 193.675C517.634 190.975 518.984 188.5 520.634 186.25C526.784 184.75 533.459 183.4 540.659 182.2C556.859 179.5 571.184 177.85 583.634 177.25V170.5C583.634 153.85 581.609 142.375 577.559 136.075C573.509 129.775 567.284 126.625 558.884 126.625C555.734 126.625 553.034 127 550.784 127.75L547.634 128.875V162.625L544.709 163.3C542.309 163.6 540.284 163.75 538.634 163.75C533.534 163.75 529.409 162.25 526.259 159.25C523.259 156.1 521.759 151.975 521.759 146.875C521.759 139.975 525.209 134.125 532.109 129.325C539.159 124.525 549.584 122.125 563.384 122.125C575.084 122.125 585.134 124.225 593.534 128.425C602.084 132.475 608.534 138.175 612.884 145.525C617.384 152.725 619.634 161.05 619.634 170.5V231.25L633.134 234.625V238H612.884C603.884 238 596.909 235.225 591.959 229.675C589.859 227.425 588.209 224.575 587.009 221.125C584.909 224.875 582.434 228.25 579.584 231.25C572.834 238 564.434 241.375 554.384 241.375ZM563.384 233.5C568.934 233.5 573.959 230.5 578.459 224.5C580.109 222.25 581.834 219.25 583.634 215.5V182.875C576.734 182.875 570.134 183.25 563.834 184C559.184 184.6 556.034 184.975 554.384 185.125C553.634 186.775 552.884 189.025 552.134 191.875C550.634 197.575 549.884 203.2 549.884 208.75C549.884 217.15 551.159 223.375 553.709 227.425C556.259 231.475 559.484 233.5 563.384 233.5ZM640.095 132.25L628.845 128.875V125.5H654.72C662.67 125.5 668.97 127.15 673.62 130.45C678.27 133.75 682.095 138.475 685.095 144.625L709.845 196.375L722.67 163.525L707.595 132.25L696.345 128.875V125.5H722.22C730.17 125.5 736.47 127.15 741.12 130.45C745.77 133.75 749.595 138.475 752.595 144.625L777.345 196.375L800.97 135.625L784.095 128.875V125.5H825.72V128.875L807.72 135.625L766.095 240.25H759.345L726.045 170.95L698.595 240.25H691.845L640.095 132.25ZM865.077 241.375C851.727 241.375 841.452 238.525 834.252 232.825C827.052 227.125 823.452 219.85 823.452 211C823.452 205.15 824.727 199.375 827.277 193.675C828.327 190.975 829.677 188.5 831.327 186.25C837.477 184.75 844.152 183.4 851.352 182.2C867.552 179.5 881.877 177.85 894.327 177.25V170.5C894.327 153.85 892.302 142.375 888.252 136.075C884.202 129.775 877.977 126.625 869.577 126.625C866.427 126.625 863.727 127 861.477 127.75L858.327 128.875V162.625L855.402 163.3C853.002 163.6 850.977 163.75 849.327 163.75C844.227 163.75 840.102 162.25 836.952 159.25C833.952 156.1 832.452 151.975 832.452 146.875C832.452 139.975 835.902 134.125 842.802 129.325C849.852 124.525 860.277 122.125 874.077 122.125C885.777 122.125 895.827 124.225 904.227 128.425C912.777 132.475 919.227 138.175 923.577 145.525C928.077 152.725 930.327 161.05 930.327 170.5V231.25L943.827 234.625V238H923.577C914.577 238 907.602 235.225 902.652 229.675C900.552 227.425 898.902 224.575 897.702 221.125C895.602 224.875 893.127 228.25 890.277 231.25C883.527 238 875.127 241.375 865.077 241.375ZM874.077 233.5C879.627 233.5 884.652 230.5 889.152 224.5C890.802 222.25 892.527 219.25 894.327 215.5V182.875C887.427 182.875 880.827 183.25 874.527 184C869.877 184.6 866.727 184.975 865.077 185.125C864.327 186.775 863.577 189.025 862.827 191.875C861.327 197.575 860.577 203.2 860.577 208.75C860.577 217.15 861.852 223.375 864.402 227.425C866.952 231.475 870.177 233.5 874.077 233.5ZM1031.68 241.375C1021.63 241.375 1013.23 238 1006.48 231.25C1003.63 228.25 1001.16 224.875 999.058 221.125C998.008 224.425 996.208 227.425 993.658 230.125C987.958 236.125 979.633 239.125 968.683 239.125H966.433V87.25L952.933 83.875V80.5H982.183C995.683 80.5 1002.43 87.25 1002.43 100.75V131.125C1004.83 129.175 1007.16 127.675 1009.41 126.625C1014.81 123.625 1021.11 122.125 1028.31 122.125C1043.46 122.125 1055.46 127.3 1064.31 137.65C1073.31 147.85 1077.81 162.55 1077.81 181.75C1077.81 194.5 1075.78 205.375 1071.73 214.375C1067.68 223.225 1062.21 229.975 1055.31 234.625C1048.41 239.125 1040.53 241.375 1031.68 241.375ZM1022.68 233.5C1027.48 233.5 1031.46 229.75 1034.61 222.25C1037.91 214.6 1039.56 201.1 1039.56 181.75C1039.56 161.5 1037.76 147.625 1034.16 140.125C1030.71 132.625 1025.76 128.875 1019.31 128.875C1015.41 128.875 1011.43 130.375 1007.38 133.375C1006.18 134.275 1004.53 135.775 1002.43 137.875V215.5C1003.78 218.95 1005.43 221.95 1007.38 224.5C1011.88 230.5 1016.98 233.5 1022.68 233.5ZM1155.49 241.375C1136.89 241.375 1122.26 236.125 1111.61 225.625C1101.11 214.975 1095.86 200.35 1095.86 181.75C1095.86 163.15 1101.11 148.6 1111.61 138.1C1122.26 127.45 1136.89 122.125 1155.49 122.125C1174.09 122.125 1188.64 127.45 1199.14 138.1C1209.79 148.6 1215.11 163.15 1215.11 181.75C1215.11 200.35 1209.79 214.975 1199.14 225.625C1188.64 236.125 1174.09 241.375 1155.49 241.375ZM1155.49 236.875C1161.49 236.875 1166.51 232.675 1170.56 224.275C1174.76 215.875 1176.86 201.7 1176.86 181.75C1176.86 161.8 1174.76 147.625 1170.56 139.225C1166.51 130.825 1161.49 126.625 1155.49 126.625C1149.49 126.625 1144.39 130.825 1140.19 139.225C1136.14 147.625 1134.11 161.8 1134.11 181.75C1134.11 201.7 1136.14 215.875 1140.19 224.275C1144.39 232.675 1149.49 236.875 1155.49 236.875ZM1233.19 234.625L1246.69 231.25V132.25L1233.19 128.875V125.5H1253.44C1262.29 125.5 1269.26 128.35 1274.36 134.05C1276.31 136.3 1277.96 139.075 1279.31 142.375C1281.41 138.475 1283.89 135.1 1286.74 132.25C1293.49 125.5 1301.89 122.125 1311.94 122.125C1320.34 122.125 1327.84 123.925 1334.44 127.525C1341.19 130.975 1346.44 135.55 1350.19 141.25C1353.94 146.95 1355.81 152.95 1355.81 159.25V231.25L1369.31 234.625V238H1340.06C1326.56 238 1319.81 231.25 1319.81 217.75V159.25C1319.81 149.8 1318.09 142.6 1314.64 137.65C1311.34 132.55 1307.44 130 1302.94 130C1297.24 130 1292.14 133 1287.64 139C1285.69 141.55 1284.04 144.55 1282.69 148V231.25L1296.19 234.625V238H1233.19V234.625ZM1426.7 241.375C1413.35 241.375 1403.07 238.525 1395.87 232.825C1388.67 227.125 1385.07 219.85 1385.07 211C1385.07 205.15 1386.35 199.375 1388.9 193.675C1389.95 190.975 1391.3 188.5 1392.95 186.25C1399.1 184.75 1405.77 183.4 1412.97 182.2C1429.17 179.5 1443.5 177.85 1455.95 177.25V170.5C1455.95 153.85 1453.92 142.375 1449.87 136.075C1445.82 129.775 1439.6 126.625 1431.2 126.625C1428.05 126.625 1425.35 127 1423.1 127.75L1419.95 128.875V162.625L1417.02 163.3C1414.62 163.6 1412.6 163.75 1410.95 163.75C1405.85 163.75 1401.72 162.25 1398.57 159.25C1395.57 156.1 1394.07 151.975 1394.07 146.875C1394.07 139.975 1397.52 134.125 1404.42 129.325C1411.47 124.525 1421.9 122.125 1435.7 122.125C1447.4 122.125 1457.45 124.225 1465.85 128.425C1474.4 132.475 1480.85 138.175 1485.2 145.525C1489.7 152.725 1491.95 161.05 1491.95 170.5V231.25L1505.45 234.625V238H1485.2C1476.2 238 1469.22 235.225 1464.27 229.675C1462.17 227.425 1460.52 224.575 1459.32 221.125C1457.22 224.875 1454.75 228.25 1451.9 231.25C1445.15 238 1436.75 241.375 1426.7 241.375ZM1435.7 233.5C1441.25 233.5 1446.27 230.5 1450.77 224.5C1452.42 222.25 1454.15 219.25 1455.95 215.5V182.875C1449.05 182.875 1442.45 183.25 1436.15 184C1431.5 184.6 1428.35 184.975 1426.7 185.125C1425.95 186.775 1425.2 189.025 1424.45 191.875C1422.95 197.575 1422.2 203.2 1422.2 208.75C1422.2 217.15 1423.47 223.375 1426.02 227.425C1428.57 231.475 1431.8 233.5 1435.7 233.5Z" fill="#EFE9DB"/>
<path d="M297.077 177.928L296.42 177.692C296.781 177.776 297.141 177.872 297.501 177.952L297.077 177.928ZM248.331 85.6799C247.404 85.4724 246.482 85.1291 245.635 84.6661C244.281 84.3428 242.852 84.2511 241.431 84.3708C240.216 84.4466 239.06 84.6741 237.762 84.8457C236.464 84.9934 235.106 84.9575 233.792 84.6462C231.155 83.9996 228.915 82.2794 227.268 80.2838C225.626 78.2603 224.442 75.8976 224.007 73.3911L223.975 73.1955L224.165 73.1716C226.568 72.8762 228.951 72.6966 231.322 72.5809L233.095 72.4971C233.673 72.4691 234.413 72.4851 235.078 72.5649C236.456 72.7206 237.821 73.2634 239.005 74.0017C241.376 75.5623 242.741 77.7854 244.119 79.6093C245.516 81.4373 246.906 83.0338 248.873 83.9956V83.9996C248.885 84.0036 248.897 84.0036 248.909 84.0076L248.331 85.6799ZM85.2357 289.864C85.8928 284.093 86.728 278.377 87.6622 272.678C88.7824 265.837 89.9936 259.02 91.3791 252.231L93.5363 242.07C94.328 238.693 95.0405 235.305 95.9113 231.944C97.5699 225.211 99.359 218.498 101.607 211.872C101.223 218.861 100.408 225.766 99.4105 232.639C98.9553 236.083 98.3338 239.495 97.7836 242.92C97.2215 246.125 96.6001 249.318 95.9945 252.507L96.8811 253.879C96.7109 253.704 96.5447 253.524 96.3705 253.357C97.6411 255.983 98.7019 258.677 99.8538 261.343C101.014 263.997 102.158 266.659 103.381 269.285C105.799 274.546 108.317 279.762 111.016 284.883C113.752 289.988 116.522 295.076 119.618 300.005C121.154 302.488 122.741 304.911 124.546 307.293C124.775 307.577 125.033 307.892 125.294 308.183L126.006 308.962C126.466 309.484 126.897 310.055 127.348 310.614L129.066 312.853L131.596 318.345C122.349 316.405 113.269 313.671 104.481 310.175C97.1107 307.261 89.9818 303.749 83.1378 299.73L85.2357 289.864ZM114.444 222.964C118.783 220.781 122.828 218.047 124.866 213.88C126.117 211.637 127.447 209.39 129.217 207.374C130.099 206.377 131.105 205.431 132.229 204.645C133.345 203.834 134.608 203.288 135.732 202.789C136.298 202.537 136.84 202.298 137.351 202.018C137.545 201.927 137.87 201.719 138.123 201.575C138.352 201.416 138.574 201.28 138.804 201.108C139.73 200.414 140.549 199.548 141.313 198.614C142.814 196.714 143.973 194.479 145.082 192.208C144.547 194.683 143.76 197.125 142.465 199.408C141.812 200.546 140.989 201.607 140.019 202.549C139.781 202.789 139.492 203.02 139.231 203.248C138.958 203.447 138.784 203.607 138.436 203.838C137.881 204.213 137.308 204.545 136.761 204.856C134.549 206.053 132.85 207.347 131.402 209.242C129.953 211.09 128.686 213.174 127.554 215.349C126.327 217.732 124.411 219.903 122.29 221.471C120.128 223.044 117.801 224.261 115.402 225.167C110.617 227.039 105.688 227.981 100.768 228.971C105.308 226.76 110.078 225.147 114.444 222.964ZM25.2948 218.677C25.6313 224.624 26.7079 230.527 28.1765 236.53C24.9504 231.282 22.7892 225.291 21.7521 219.096C21.1781 216.011 20.9723 212.87 20.8496 209.749C20.7744 206.688 20.7823 203.635 20.7467 200.577C20.7586 194.471 20.9683 188.377 21.2573 182.282C21.5067 176.18 22.0648 170.121 22.3498 163.975C23.2444 166.952 23.6204 170.033 24.036 173.082C24.3844 176.14 24.6654 179.197 24.8435 182.258C25.2117 188.377 25.374 194.491 25.3344 200.597L25.1879 209.749C25.0573 212.731 25.1602 215.7 25.2948 218.677ZM313.829 155.366C313.825 155.366 313.825 155.366 313.821 155.366C313.797 155.358 313.809 155.358 313.829 155.366ZM315.963 160.355C315.693 159.508 315.389 158.678 315.084 157.96C315.46 158.718 315.757 159.524 315.963 160.355ZM380.281 159.277C380.23 158.814 379.941 158.235 379.557 157.912C378.761 157.277 378.176 157.305 377.712 157.253C377.241 157.233 376.846 157.273 376.462 157.325C373.529 157.852 371.173 158.978 368.755 160.115L366.985 161.017C366.772 161.129 366.396 161.32 366.174 161.416C365.936 161.524 365.663 161.632 365.382 161.739C364.262 162.163 363.055 162.502 361.844 162.809C356.959 164.006 351.849 164.629 346.75 165.032C341.648 165.447 336.51 165.623 331.372 165.563C326.48 165.507 321.579 165.244 316.699 164.777C316.778 164.23 316.711 163.504 316.564 162.697L316.738 162.693C316.746 160.59 316.168 158.503 315.108 156.667C314.969 156.439 314.823 156.212 314.648 155.996C314.466 155.793 314.336 155.585 313.972 155.413V155.394C313.96 155.29 313.956 155.17 313.956 155.046L313.972 154.292L314.09 151.203C314.13 149.131 314.078 147.036 313.698 144.961C313.307 142.989 312.622 140.85 310.896 139.421C309.926 136.084 308.877 132.664 307.187 129.515C305.576 126.466 303.3 123.616 300.264 121.748C300.22 119.593 299.583 117.681 298.914 115.801C298.162 113.794 297.24 111.866 296.183 110.01C295.11 108.158 293.946 106.362 292.379 104.75C292.019 104.363 291.476 103.931 291.116 103.652C290.705 103.329 290.42 103.041 290.055 102.686C289.378 101.984 288.757 101.202 288.175 100.383C285.863 97.0826 284.066 93.327 282.376 89.5553C280.694 85.7677 279.154 81.8963 277.622 78.0129C276.086 74.1295 274.566 70.2261 272.924 66.3547C271.269 62.4872 269.551 58.6238 267.291 54.932C266.721 54.01 266.107 53.104 265.427 52.226C265.09 51.7909 264.71 51.3479 264.346 50.9448L263.305 49.7914L259.137 45.1377C256.354 42.0285 253.54 38.9314 250.666 35.8861C247.792 32.8409 244.859 29.8475 241.851 26.926C240.347 25.4612 238.811 24.0324 237.259 22.6155C235.664 21.1747 234.199 19.9015 232.794 18.4088C231.369 16.9441 229.932 15.3436 228.21 13.9028C226.497 12.45 224.486 11.2487 222.388 10.4345C218.168 8.79812 213.822 8.38703 209.59 8.20343C205.312 8.07172 201.227 8.22339 197.066 8.2194L184.641 8.25931C176.36 8.23935 168.091 8.10365 159.842 7.71252C143.356 6.87837 126.909 5.26594 111.147 0.492506C108.732 -0.182001 106.357 -0.0582741 104.149 0.241062C101.928 0.564347 99.8103 1.1271 97.7559 1.81757C93.6511 3.19452 89.7918 5.03844 86.0709 7.07793C78.6372 11.1928 71.7695 16.1498 65.2976 21.5539C52.3777 32.3899 41.1162 45.1217 31.5925 59.0269C22.0885 72.9481 14.4648 88.1903 9.14086 104.215C3.809 120.231 0.852129 137.054 0.49588 153.929C0.313796 162.37 0.761087 170.803 1.814 179.181C3.02525 187.51 4.82629 195.756 7.09441 203.846C8.25024 207.885 9.54857 211.88 11.0052 215.816C12.4579 219.755 13.9542 223.678 15.6523 227.518C19.0169 235.209 22.9792 242.628 27.3373 249.809C36.1644 264.093 47.0062 277.24 59.8233 288.207C72.5691 299.239 87.1436 308.135 102.7 314.629C118.272 321.115 134.932 324.914 151.728 326.008C168.527 327.061 185.425 325.485 201.713 321.625C209.86 319.662 217.852 317.163 225.657 314.198C233.435 311.157 241.043 307.712 248.37 303.749L248.168 303.334C240.553 306.651 232.838 309.692 224.961 312.19C217.103 314.765 209.115 316.86 201.033 318.421C195.855 319.454 190.638 320.261 185.405 320.839C180.39 310.558 173.756 293.38 170.866 280.401C168.986 271.932 159.154 239.867 158.116 231.621C156.893 221.89 153.901 203.727 151.276 189.909C144.856 186.509 139.152 181.939 134.038 176.922C132.482 175.393 130.978 173.813 129.525 172.192L127.38 169.754C126.695 168.971 125.951 168.042 125.413 167.559C123.655 165.942 122.167 163.939 121.106 161.799C120.033 159.66 119.38 157.437 118.759 155.437C118.145 153.434 117.504 151.678 116.479 150.433C115.481 149.179 114.017 148.325 112.243 147.754C111.373 147.471 110.423 147.256 109.48 147.1L108.74 146.984L108.337 146.924C108.131 146.892 107.925 146.856 107.751 146.813C107.014 146.629 106.417 146.389 105.843 146.134C103.614 145.084 101.813 143.807 100.028 142.486C96.5011 139.816 93.287 136.891 90.2034 133.813C87.1357 130.728 84.2145 127.491 81.5743 123.959C80.2561 122.187 78.9974 120.355 77.897 118.34C77.3468 117.338 76.8362 116.28 76.4166 115.123C75.993 113.905 75.7635 112.812 75.5457 111.686C75.1222 109.427 74.9718 107.22 74.7422 105.157C74.5205 103.085 74.188 101.11 73.6457 99.162C72.581 95.2627 70.776 91.507 68.7572 87.8471C66.7306 84.1912 64.4347 80.6311 62.036 77.1588C61.4462 76.2927 60.7931 75.4266 60.1756 74.4128C59.5779 73.419 59.0474 72.3734 58.6199 71.2758C57.7531 69.0846 57.3374 66.666 57.4641 64.2952C57.7174 59.4819 60.0331 55.2473 62.7881 51.8029C65.5826 48.3266 68.9037 45.441 72.387 42.8587C75.8822 40.2884 79.5555 38.0174 83.3436 35.9859C90.9357 31.9548 98.884 28.714 107.018 26.1078C115.141 23.5694 123.509 21.3743 132.039 21.2426C127.792 21.478 123.628 22.388 119.527 23.4537C115.43 24.5193 111.384 25.8085 107.402 27.2572C99.4501 30.1708 91.7155 33.703 84.4243 37.9576C80.7826 40.0809 77.232 42.3598 73.9307 44.9341C70.6335 47.5004 67.538 50.3461 65.0562 53.6029C62.5901 56.8318 60.7535 60.5835 60.6585 64.427C60.607 66.3347 60.9791 68.2305 61.7272 70.0026C62.0993 70.8886 62.5585 71.7467 63.0849 72.5729C63.5956 73.3751 64.2447 74.2013 64.882 75.0873C67.4232 78.5876 69.8616 82.1557 72.0743 85.9273C74.2712 89.699 76.2384 93.6981 77.5051 98.0565C78.1345 100.224 78.5462 102.487 78.8034 104.67C79.0726 106.861 79.2468 108.932 79.6426 110.884C79.8366 111.862 80.0741 112.864 80.3709 113.662C80.6916 114.516 81.1191 115.39 81.6059 116.252C82.5797 117.984 83.7632 119.669 85.0141 121.305C90.1163 127.807 96.1567 133.865 102.696 138.854C104.331 140.067 106.053 141.233 107.687 141.983C108.594 142.394 108.847 142.394 110.193 142.594C111.349 142.781 112.473 143.029 113.625 143.4C115.893 144.103 118.311 145.404 120.002 147.511C121.708 149.598 122.484 151.993 123.137 154.045C123.778 156.136 124.34 158.04 125.187 159.736C126.022 161.432 127.119 162.917 128.492 164.198C129.518 165.172 130.076 165.946 130.804 166.764L132.874 169.143C134.268 170.708 135.696 172.228 137.177 173.697C143.079 179.552 149.776 184.645 157.246 187.918C160.974 189.55 164.893 190.691 168.895 191.166C169.394 191.234 169.896 191.274 170.395 191.322C170.874 191.35 171.507 191.406 171.638 191.382C172.066 191.342 172.529 191.114 173.035 190.556C174.049 189.43 174.817 187.522 175.379 185.627C176.511 181.751 177.069 177.541 177.548 173.35C178.019 169.147 178.347 164.881 178.644 160.626C179.761 143.58 180.228 126.462 179.618 109.387C179.349 100.85 178.799 92.3132 177.595 83.8599C176.982 79.6373 176.202 75.4346 175.102 71.3157C174.005 67.2048 172.624 63.1179 170.383 59.4659C172.822 62.9901 174.441 67.0372 175.763 71.1201C177.053 75.223 178.003 79.4297 178.791 83.6604C180.346 92.1256 181.245 100.695 181.862 109.272C182.71 122.874 182.832 136.499 182.504 150.117L185.484 150.923C185.132 150.872 184.784 150.82 184.431 150.756C187.424 152.34 190.761 153.019 193.931 153.925C197.142 154.739 200.32 155.557 203.404 156.499C206.455 157.497 209.495 158.519 212.037 160.111C212.67 160.498 213.284 160.893 213.838 161.336C214.119 161.556 214.38 161.787 214.637 162.019L215.611 162.905C216.933 164.05 218.287 165.116 219.692 166.11C222.514 168.069 225.471 169.806 228.598 171.23C231.733 172.619 234.987 173.853 238.486 174.383C240.232 174.643 242.033 174.803 243.858 174.563C245.667 174.336 247.547 173.753 249.071 172.579C250.587 171.402 251.612 169.726 252.067 168.014C252.542 166.301 252.594 164.569 252.427 162.897C252.451 162.246 252.459 161.668 252.463 161.149C251.842 160.83 251.228 160.51 250.642 160.199L248.774 158.547C248.77 158.547 248.77 158.547 248.766 158.547C248.766 158.547 248.762 158.547 248.758 158.547C247.365 158.507 246.003 158.355 244.594 158.088L244.048 157.972L243.406 157.816C242.975 157.7 242.555 157.569 242.152 157.417C241.336 157.118 240.556 156.767 239.828 156.351C234.049 152.919 230.38 147.918 226.825 143.141C225.048 140.742 223.401 138.279 221.612 135.977C220.733 134.803 219.803 133.694 218.786 132.672C217.764 131.666 216.636 130.732 215.195 130.297C216.719 130.217 218.232 130.884 219.55 131.662C220.884 132.452 222.071 133.442 223.231 134.432C225.495 136.471 227.561 138.667 229.56 140.858C231.607 143.013 233.519 145.232 235.589 147.208C237.631 149.195 239.741 151.083 242.025 152.3C242.591 152.6 243.157 152.883 243.727 153.095C244.016 153.206 244.301 153.298 244.586 153.382L245.018 153.49L245.556 153.609C246.826 153.901 248.204 154.088 249.534 154.164C252.226 154.376 254.921 153.921 257.712 153.31C260.491 152.668 263.396 151.734 266.543 151.434C268.106 151.323 269.717 151.382 271.233 151.77C272.753 152.153 274.163 152.811 275.394 153.681C274.353 153.382 273.32 153.198 272.294 153.115C272.231 153.107 272.168 153.099 272.104 153.095C272.069 153.095 272.033 153.095 271.997 153.095C271.922 153.087 271.847 153.087 271.768 153.083C280.828 157.788 290.554 161.121 300.486 163.48C310.591 165.85 320.93 167.195 331.317 167.678C341.704 168.101 352.15 167.878 362.52 165.667C363.819 165.363 365.113 165.008 366.411 164.529C366.736 164.41 367.065 164.282 367.417 164.122C367.785 163.963 367.991 163.855 368.351 163.671L370.045 162.825C372.246 161.783 374.609 160.762 376.747 160.382C376.2 161.121 375.448 161.899 374.684 162.622C372.86 164.306 370.861 165.958 368.822 167.315C364.666 170.041 359.92 171.909 355.063 173.358C350.186 174.791 345.147 175.748 340.081 176.547C335.01 177.325 329.888 177.868 324.754 178.291C322.193 178.486 319.596 178.71 317.063 178.798C314.51 178.874 311.949 178.794 309.388 178.606C302.544 178.063 295.751 176.81 289.062 175.09C285.749 174.236 282.463 173.282 279.214 172.228C275.58 171.039 271.986 169.742 268.427 168.341C263 166.194 257.672 163.779 252.463 161.129C251.857 160.818 251.248 160.514 250.642 160.199C251.248 160.518 251.857 160.829 252.463 161.145C252.827 161.332 253.191 161.524 253.56 161.708C254.248 162.059 254.965 162.414 255.693 162.769C259.889 164.837 264.156 166.756 268.482 168.528C272.421 182.849 281.893 225.295 272.045 243.395C262.015 261.834 246.185 257.787 242.84 255.987C239.496 254.187 237.041 250.367 239.496 246.544C241.95 242.72 239.496 238.003 238.383 237.328C237.267 236.65 236.82 234.626 238.827 233.054C240.834 231.477 241.503 227.881 237.041 227.43C232.588 226.983 218.988 233.505 217.646 242.273C216.308 251.042 219.878 271.277 231.025 276.677C242.171 282.069 255.551 287.246 276.059 279.822C296.571 272.398 304.816 257.336 309.503 245.646C314.13 234.087 321.243 215.369 318.817 180.39C320.847 180.346 322.846 180.247 324.873 180.163C330.046 179.911 335.228 179.54 340.401 178.925C345.567 178.319 350.729 177.433 355.811 176.048C360.878 174.671 365.913 172.791 370.445 169.842C372.733 168.333 374.744 166.685 376.747 164.869C377.736 163.923 378.71 163.009 379.593 161.676C379.81 161.324 380.028 160.949 380.19 160.386C380.27 160.099 380.337 159.744 380.281 159.277Z" fill="#EFE9DB"/>
</svg>
